# xmcd
#
# Track frame offsets: 
#        150
#        14857
#        47275
#        76458
#        100745
#        124533
#        147168
#        167795
#        190109
#        219074
#
# Disc length: 3287 seconds
#
# Revision: 0
# Processed by: cddbd v1.5.2PL0 Copyright (c) Steve Scherf et al.
# Submitted via: ExactAudioCopyFreeDBPlugin 1.0
#
DISCID=7b0cd50a
DTITLE=Fred Chapellier and Tom Principato - Guitare On Fire
DYEAR=2011
DGENRE=Blues
TTITLE0=If love is blind
TTITLE1=O.V. Wright
TTITLE2=Don't Wanna do it
TTITLE3=My love comes tumblin's down
TTITLE4=Part of me
TTITLE5=Beer drinking woman
TTITLE6=Call the law
TTITLE7=Night work
TTITLE8=I hear you knockin'
TTITLE9=Done your daddy dirty
EXTD=
EXTT0=
EXTT1=
EXTT2=
EXTT3=
EXTT4=
EXTT5=
EXTT6=
EXTT7=
EXTT8=
EXTT9=
PLAYORDER=
